<?xml version="1.0" encoding="UTF-8"?>
<svg id="Calque_1" data-name="Calque 1" xmlns="http://www.w3.org/2000/svg" xmlns:xlink="http://www.w3.org/1999/xlink" viewBox="0 0 1924.2 1260.5">
  <defs>
    <style>
      .cls-1 {
        letter-spacing: -.09em;
      }

      .cls-2 {
        letter-spacing: 0em;
      }

      .cls-3 {
        letter-spacing: 0em;
      }

      .cls-4 {
        letter-spacing: -.07em;
      }

      .cls-5 {
        letter-spacing: 0em;
      }

      .cls-6 {
        font-family: BaskervillePro-Regular, 'Baskerville Pro';
        font-size: 23px;
        stroke: #fff;
        stroke-miterlimit: 10;
        stroke-width: .5px;
      }

      .cls-6, .cls-7 {
        isolation: isolate;
      }

      .cls-8 {
        letter-spacing: 0em;
      }

      .cls-9 {
        letter-spacing: -.06em;
      }

      .cls-10 {
        letter-spacing: 0em;
      }

      .cls-11 {
        letter-spacing: -.08em;
      }

      .cls-12 {
        letter-spacing: -.05em;
      }

      .cls-13 {
        letter-spacing: -.01em;
      }

      .cls-14 {
        letter-spacing: 0em;
      }

      .cls-15 {
        letter-spacing: -.02em;
      }

      .cls-16 {
        letter-spacing: -.08em;
      }

      .cls-17 {
        letter-spacing: 0em;
      }

      .cls-18 {
        letter-spacing: -.01em;
      }

      .cls-19 {
        letter-spacing: .01em;
      }

      .cls-20 {
        letter-spacing: -.01em;
      }

      .cls-21 {
        letter-spacing: -.02em;
      }

      .cls-22 {
        letter-spacing: .01em;
      }

      .cls-23 {
        letter-spacing: .01em;
      }

      .cls-24 {
        letter-spacing: -.02em;
      }

      .cls-25 {
        letter-spacing: -.09em;
      }

      .cls-26 {
        letter-spacing: -.02em;
      }

      .cls-27 {
        letter-spacing: -.03em;
      }

      .cls-28 {
        letter-spacing: 0em;
      }

      .cls-29 {
        letter-spacing: .01em;
      }

      .cls-30 {
        letter-spacing: -.02em;
      }

      .cls-31 {
        letter-spacing: 0em;
      }

      .cls-32 {
        letter-spacing: 0em;
      }

      .cls-33 {
        letter-spacing: 0em;
      }

      .cls-34 {
        letter-spacing: 0em;
      }
    </style>
  </defs>
  <g id="Calque_1-2" data-name="Calque 1">
    <image class="cls-7" width="4482" height="2917" transform="scale(.43)" xlink:href="Carte Le Feu Sombre_sans noms.png"/>
  </g>
  <g class="cls-7">
    <text class="cls-6" transform="translate(543 346.8)"><tspan x="0" y="0">Sofipol</tspan></text>
  </g>
  <g class="cls-7">
    <text class="cls-6" transform="translate(448.3 270.3)"><tspan x="0" y="0">Ile de </tspan><tspan class="cls-23" x="59.2" y="0">K</tspan><tspan x="76.17" y="0">ameno</tspan></text>
  </g>
  <g class="cls-7">
    <text class="cls-6" transform="translate(449 496.9)"><tspan x="0" y="0">Mer des Dispa</tspan><tspan class="cls-22" x="137.7" y="0">r</tspan><tspan class="cls-31" x="146.74" y="0">us</tspan></text>
  </g>
  <g class="cls-7">
    <text class="cls-6" transform="translate(719.9 708.9)"><tspan class="cls-4" x="0" y="0">F</tspan><tspan x="11.62" y="0">alaise</tspan></text>
  </g>
  <g class="cls-7">
    <text class="cls-6" transform="translate(750.7 441.3)"><tspan x="0" y="0">Anse d</tspan><tspan class="cls-25" x="66.29" y="0">’</tspan><tspan x="69.9" y="0">A</tspan><tspan class="cls-29" x="86.39" y="0">r</tspan><tspan x="95.33" y="0">nor</tspan></text>
  </g>
  <g class="cls-7">
    <text class="cls-6" transform="translate(848.4 225.4)"><tspan class="cls-32" x="0" y="0">R</tspan><tspan x="15.92" y="0">o</tspan><tspan class="cls-5" x="27.53" y="0">c</tspan><tspan x="37.28" y="0">h</tspan><tspan class="cls-17" x="49.77" y="0">e</tspan><tspan class="cls-8" x="59.87" y="0">ville</tspan></text>
  </g>
  <g class="cls-7">
    <text class="cls-6" transform="translate(917 342.9)"><tspan x="0" y="0">Confluences</tspan></text>
  </g>
  <g class="cls-7">
    <text class="cls-6" transform="translate(839.7 577.5)"><tspan x="0" y="0">P</tspan><tspan class="cls-18" x="13.55" y="0">r</tspan><tspan class="cls-15" x="21.96" y="0">o</tspan><tspan x="33.23" y="0">vinces</tspan></text>
  </g>
  <g class="cls-7">
    <text class="cls-6" transform="translate(1157 259.9)"><tspan x="0" y="0">Lémenc</tspan></text>
  </g>
  <g class="cls-7">
    <text class="cls-6" transform="translate(1308.3 200.3)"><tspan class="cls-11" x="0" y="0">T</tspan><tspan class="cls-18" x="14.33" y="0">r</tspan><tspan x="22.75" y="0">ol</tspan><tspan class="cls-10" x="40.5" y="0">l</tspan><tspan class="cls-2" x="46.48" y="0">v</tspan><tspan x="57.15" y="0">ag</tspan></text>
  </g>
  <g class="cls-7">
    <text class="cls-6" transform="translate(1144.6 178.6)"><tspan class="cls-12" x="0" y="0">V</tspan><tspan x="15.27" y="0">itir </tspan><tspan class="cls-16" x="49.36" y="0">V</tspan><tspan class="cls-31" x="63.89" y="0">alar</tspan></text>
  </g>
  <g class="cls-7">
    <text class="cls-6" transform="translate(1507.3 255.7)"><tspan x="0" y="0">Opdal</tspan></text>
  </g>
  <g class="cls-7">
    <text class="cls-6" transform="translate(1548.5 164)"><tspan x="0" y="0">K</tspan><tspan class="cls-18" x="16.67" y="0">r</tspan><tspan x="25.09" y="0">on</tspan><tspan class="cls-3" x="49.33" y="0">s</tspan><tspan class="cls-34" x="57.71" y="0">t</tspan><tspan x="64.77" y="0">ein</tspan></text>
  </g>
  <g class="cls-7">
    <text class="cls-6" transform="translate(1276.9 266)"><tspan x="0" y="0">Col du Clapier</tspan></text>
  </g>
  <g class="cls-7">
    <text class="cls-6" transform="translate(1363.3 530.6)"><tspan x="0" y="0">Ma</tspan><tspan class="cls-13" x="31.72" y="0">r</tspan><tspan class="cls-5" x="40.11" y="0">c</tspan><tspan x="49.86" y="0">he de Jo</tspan><tspan class="cls-32" x="127.63" y="0">r</tspan><tspan x="136.25" y="0">at - O</tspan><tspan class="cls-30" x="188.62" y="0">v</tspan><tspan x="198.95" y="0">e</tspan><tspan class="cls-26" x="209.21" y="0">n</tspan><tspan x="221.44" y="0">pass</tspan></text>
  </g>
  <g class="cls-7">
    <text class="cls-6" transform="translate(1001.9 619.7)"><tspan x="0" y="0">Ho</tspan><tspan class="cls-29" x="29.97" y="0">r</tspan><tspan x="38.92" y="0">izon</tspan></text>
  </g>
  <g class="cls-7">
    <text class="cls-6" transform="translate(997.9 743.6)"><tspan x="0" y="0">Ma</tspan><tspan class="cls-32" x="31.72" y="0">r</tspan><tspan x="40.34" y="0">ais de Q</tspan><tspan class="cls-24" x="118.38" y="0">o</tspan><tspan class="cls-33" x="129.56" y="0">y</tspan><tspan class="cls-31" x="140.14" y="0">an</tspan></text>
  </g>
  <g class="cls-7">
    <text class="cls-6" transform="translate(1209.8 638)"><tspan x="0" y="0">La Chaume</tspan></text>
  </g>
  <g class="cls-7">
    <text class="cls-6" transform="translate(1105.8 503.3)"><tspan x="0" y="0">Beau</tspan><tspan class="cls-5" x="47.75" y="0">c</tspan><tspan class="cls-8" x="57.5" y="0">lair</tspan></text>
  </g>
  <g class="cls-7">
    <text class="cls-6" transform="translate(1262.9 534.9)"><tspan x="0" y="0">B</tspan><tspan class="cls-29" x="14.35" y="0">r</tspan><tspan x="23.3" y="0">ion</tspan></text>
  </g>
  <g class="cls-7">
    <text class="cls-6" transform="translate(866 471)"><tspan x="0" y="0">Rhonne</tspan></text>
  </g>
  <g class="cls-7">
    <text class="cls-6" transform="translate(1202.3 929)"><tspan class="cls-1" x="0" y="0">T</tspan><tspan class="cls-31" x="13.98" y="0">anaa</tspan></text>
  </g>
  <g class="cls-7">
    <text class="cls-6" transform="translate(1122.5 1012.7)"><tspan x="0" y="0">GRANDE </tspan><tspan class="cls-20" x="104.88" y="0">F</tspan><tspan class="cls-31" x="117.74" y="0">ORET</tspan></text>
  </g>
  <g class="cls-7">
    <text class="cls-6" transform="translate(1637.6 717.2)"><tspan x="0" y="0">Dése</tspan><tspan class="cls-19" x="46.21" y="0">r</tspan><tspan x="55.22" y="0">ts de l’E</tspan><tspan class="cls-28" x="131.54" y="0">s</tspan><tspan x="139.91" y="0">t</tspan></text>
  </g>
  <g class="cls-7">
    <text class="cls-6" transform="translate(1113.5 705.4) rotate(-18.3)"><tspan x="0" y="0">Alon</tspan></text>
  </g>
  <g class="cls-7">
    <text class="cls-6" transform="translate(1090.3 346.8) rotate(-18.3)"><tspan class="cls-27" x="0" y="0">N</tspan><tspan x="16.9" y="0">eu</tspan><tspan class="cls-26" x="39.56" y="0">v</tspan><tspan x="49.89" y="0">ée</tspan></text>
  </g>
  <g class="cls-7">
    <text class="cls-6" transform="translate(1042.3 305.6) rotate(-50.7)"><tspan class="cls-9" x="0" y="0">F</tspan><tspan x="11.82" y="0">o</tspan><tspan class="cls-13" x="23.44" y="0">r</tspan><tspan class="cls-5" x="31.83" y="0">c</tspan><tspan x="41.58" y="0">h</tspan><tspan class="cls-21" x="54.07" y="0">e</tspan><tspan x="63.92" y="0">t</tspan></text>
  </g>
  <g class="cls-7">
    <text class="cls-6" transform="translate(1132 396.4) rotate(-1.4)"><tspan x="0" y="0">Ga</tspan><tspan class="cls-14" x="28.13" y="0">r</tspan><tspan class="cls-31" x="36.62" y="0">de</tspan></text>
  </g>
</svg>